<?xml version="1.0" encoding="UTF-8"?>
<svg xmlns="http://www.w3.org/2000/svg" xmlns:xlink="http://www.w3.org/1999/xlink" viewBox="0 0 96 96" width="96px" height="96px">
<g id="surface513259">
<rect x="0" y="0" width="96" height="96" style="fill:rgb(100%,100%,100%);fill-opacity:1;stroke:none;"/>
<path style=" stroke:none;fill-rule:nonzero;fill:rgb(14.509805%,18.431373%,24.313726%);fill-opacity:1;" d="M 27.054688 43.058594 C 27.054688 44.253906 27.183594 45.21875 27.40625 45.929688 C 27.660156 46.636719 27.980469 47.410156 28.429688 48.25 C 28.589844 48.507812 28.652344 48.765625 28.652344 48.992188 C 28.652344 49.3125 28.460938 49.636719 28.046875 49.960938 L 26.035156 51.3125 C 25.746094 51.507812 25.460938 51.605469 25.203125 51.605469 C 24.882812 51.605469 24.566406 51.441406 24.246094 51.152344 C 23.796875 50.667969 23.414062 50.152344 23.097656 49.636719 C 22.777344 49.089844 22.457031 48.476562 22.105469 47.734375 C 19.617188 50.699219 16.484375 52.183594 12.71875 52.183594 C 10.035156 52.183594 7.894531 51.410156 6.332031 49.863281 C 4.769531 48.3125 3.96875 46.25 3.96875 43.671875 C 3.96875 40.929688 4.929688 38.703125 6.875 37.027344 C 8.824219 35.351562 11.410156 34.511719 14.699219 34.511719 C 15.785156 34.511719 16.902344 34.609375 18.082031 34.769531 C 19.261719 34.933594 20.476562 35.191406 21.753906 35.480469 L 21.753906 33.125 C 21.753906 30.675781 21.242188 28.964844 20.253906 27.964844 C 19.230469 26.964844 17.507812 26.480469 15.050781 26.480469 C 13.933594 26.480469 12.785156 26.609375 11.601562 26.902344 C 10.421875 27.191406 9.273438 27.546875 8.152344 27.996094 C 7.644531 28.222656 7.261719 28.351562 7.035156 28.417969 C 6.8125 28.480469 6.652344 28.515625 6.527344 28.515625 C 6.078125 28.515625 5.855469 28.191406 5.855469 27.515625 L 5.855469 25.933594 C 5.855469 25.417969 5.921875 25.03125 6.078125 24.804688 C 6.238281 24.578125 6.527344 24.355469 6.972656 24.128906 C 8.09375 23.546875 9.433594 23.0625 10.996094 22.675781 C 12.5625 22.257812 14.222656 22.0625 15.976562 22.0625 C 19.777344 22.0625 22.554688 22.933594 24.34375 24.675781 C 26.101562 26.417969 26.992188 29.0625 26.992188 32.609375 L 26.992188 43.054688 L 27.054688 43.054688 Z M 14.089844 47.957031 C 15.144531 47.957031 16.230469 47.765625 17.378906 47.378906 C 18.527344 46.992188 19.550781 46.28125 20.410156 45.3125 C 20.921875 44.703125 21.304688 44.023438 21.496094 43.25 C 21.691406 42.476562 21.816406 41.539062 21.816406 40.445312 L 21.816406 39.089844 C 20.890625 38.863281 19.902344 38.671875 18.878906 38.542969 C 17.859375 38.414062 16.867188 38.347656 15.878906 38.347656 C 13.738281 38.347656 12.175781 38.769531 11.121094 39.636719 C 10.066406 40.507812 9.554688 41.734375 9.554688 43.347656 C 9.554688 44.863281 9.941406 45.988281 10.738281 46.765625 C 11.503906 47.570312 12.621094 47.957031 14.089844 47.957031 Z M 39.730469 51.441406 C 39.15625 51.441406 38.773438 51.347656 38.515625 51.121094 C 38.261719 50.925781 38.039062 50.476562 37.847656 49.863281 L 30.34375 24.9375 C 30.148438 24.292969 30.054688 23.871094 30.054688 23.644531 C 30.054688 23.128906 30.308594 22.839844 30.820312 22.839844 L 33.949219 22.839844 C 34.554688 22.839844 34.972656 22.9375 35.195312 23.160156 C 35.453125 23.355469 35.640625 23.804688 35.835938 24.421875 L 41.199219 45.769531 L 46.179688 24.421875 C 46.339844 23.777344 46.53125 23.355469 46.785156 23.160156 C 47.039062 22.96875 47.484375 22.839844 48.0625 22.839844 L 50.617188 22.839844 C 51.222656 22.839844 51.636719 22.9375 51.894531 23.160156 C 52.148438 23.355469 52.371094 23.804688 52.5 24.421875 L 57.542969 46.027344 L 63.066406 24.421875 C 63.261719 23.777344 63.484375 23.355469 63.707031 23.160156 C 63.960938 22.96875 64.375 22.839844 64.953125 22.839844 L 67.921875 22.839844 C 68.433594 22.839844 68.71875 23.097656 68.71875 23.644531 C 68.71875 23.808594 68.6875 23.96875 68.65625 24.160156 C 68.625 24.355469 68.558594 24.613281 68.433594 24.96875 L 60.738281 49.894531 C 60.546875 50.539062 60.320312 50.957031 60.066406 51.152344 C 59.8125 51.347656 59.398438 51.472656 58.855469 51.472656 L 56.109375 51.472656 C 55.503906 51.472656 55.085938 51.378906 54.828125 51.152344 C 54.574219 50.925781 54.351562 50.507812 54.222656 49.863281 L 49.277344 29.0625 L 44.359375 49.828125 C 44.199219 50.472656 44.007812 50.894531 43.753906 51.121094 C 43.496094 51.347656 43.050781 51.441406 42.476562 51.441406 Z M 80.757812 52.3125 C 79.097656 52.3125 77.4375 52.117188 75.84375 51.730469 C 74.246094 51.347656 73 50.925781 72.171875 50.441406 C 71.660156 50.152344 71.308594 49.828125 71.179688 49.539062 C 71.050781 49.25 70.988281 48.929688 70.988281 48.636719 L 70.988281 46.992188 C 70.988281 46.316406 71.242188 45.992188 71.722656 45.992188 C 71.914062 45.992188 72.105469 46.027344 72.296875 46.089844 C 72.488281 46.152344 72.773438 46.285156 73.09375 46.410156 C 74.179688 46.894531 75.359375 47.28125 76.605469 47.539062 C 77.882812 47.796875 79.128906 47.925781 80.40625 47.925781 C 82.417969 47.925781 83.980469 47.570312 85.066406 46.863281 C 86.152344 46.152344 86.726562 45.121094 86.726562 43.796875 C 86.726562 42.894531 86.441406 42.152344 85.867188 41.539062 C 85.292969 40.929688 84.207031 40.378906 82.640625 39.863281 L 78.011719 38.410156 C 75.683594 37.671875 73.957031 36.574219 72.902344 35.121094 C 71.851562 33.703125 71.308594 32.125 71.308594 30.445312 C 71.308594 29.09375 71.597656 27.898438 72.171875 26.867188 C 72.742188 25.835938 73.511719 24.933594 74.46875 24.222656 C 75.425781 23.480469 76.511719 22.933594 77.789062 22.546875 C 79.066406 22.160156 80.40625 22 81.8125 22 C 82.515625 22 83.246094 22.03125 83.953125 22.128906 C 84.6875 22.222656 85.355469 22.355469 86.027344 22.480469 C 86.664062 22.644531 87.273438 22.804688 87.847656 22.996094 C 88.421875 23.191406 88.871094 23.382812 89.191406 23.578125 C 89.636719 23.835938 89.957031 24.09375 90.148438 24.382812 C 90.339844 24.640625 90.4375 24.996094 90.4375 25.449219 L 90.4375 26.964844 C 90.4375 27.640625 90.179688 27.996094 89.703125 27.996094 C 89.445312 27.996094 89.03125 27.867188 88.488281 27.609375 C 86.667969 26.773438 84.625 26.351562 82.359375 26.351562 C 80.539062 26.351562 79.101562 26.640625 78.113281 27.253906 C 77.121094 27.867188 76.613281 28.800781 76.613281 30.125 C 76.613281 31.027344 76.933594 31.800781 77.570312 32.414062 C 78.207031 33.027344 79.390625 33.640625 81.082031 34.1875 L 85.617188 35.640625 C 87.914062 36.382812 89.574219 37.414062 90.5625 38.734375 C 91.550781 40.058594 92.03125 41.574219 92.03125 43.25 C 92.03125 44.636719 91.742188 45.894531 91.203125 46.988281 C 90.628906 48.085938 89.859375 49.054688 88.871094 49.828125 C 87.882812 50.632812 86.699219 51.214844 85.328125 51.632812 C 83.886719 52.085938 82.386719 52.3125 80.757812 52.3125 Z M 80.757812 52.3125 "/>
<path style=" stroke:none;fill-rule:nonzero;fill:rgb(100%,60.000002%,0%);fill-opacity:1;" d="M 86.792969 67.984375 C 76.289062 75.820312 61.027344 79.980469 47.902344 79.980469 C 29.511719 79.980469 12.941406 73.113281 0.425781 61.695312 C -0.566406 60.792969 0.328125 59.566406 1.511719 60.277344 C 15.046875 68.210938 31.746094 73.015625 49.019531 73.015625 C 60.675781 73.015625 73.476562 70.566406 85.257812 65.535156 C 87.015625 64.726562 88.515625 66.695312 86.792969 67.984375 Z M 91.164062 62.953125 C 89.824219 61.210938 82.289062 62.117188 78.875 62.535156 C 77.851562 62.660156 77.691406 61.761719 78.617188 61.082031 C 84.621094 56.824219 94.484375 58.050781 95.636719 59.46875 C 96.785156 60.921875 95.316406 70.886719 89.699219 75.65625 C 88.835938 76.398438 88.007812 76.011719 88.386719 75.046875 C 89.664062 71.855469 92.507812 64.660156 91.164062 62.953125 Z M 91.164062 62.953125 "/>
</g>
</svg>
