<?xml version="1.0" encoding="UTF-8"?>
<svg width="3871px" height="2367px" viewBox="0 0 3871 2367" version="1.1" xmlns="http://www.w3.org/2000/svg" xmlns:xlink="http://www.w3.org/1999/xlink">
    <!-- Generator: Sketch 58 (84663) - https://sketch.com -->
    <title>composition-23</title>
    <desc>Created with Sketch.</desc>
    <g id="composition-23" stroke="none" stroke-width="1" fill="none" fill-rule="evenodd">
        <rect fill="#D9EFF3" x="0" y="0" width="3871" height="2367"></rect>
        <path d="M2547.64911,1349.96129 C2738.7256,1545.51338 2886.77824,1823.83204 2846.28521,2080.27975 C2805.79218,2337.15629 2576.75348,2571.73304 2307.64354,2691.38004 C2038.53361,2811.02705 1729.77425,2816.17316 1497.78293,2690.9512 C1265.79161,2565.3004 1110.14652,2309.28154 1023.67703,2011.66498 C936.785734,1714.04841 919.491836,1375.69183 1075.13692,1188.71658 C1230.78201,1001.74133 1559.36608,966.576259 1840.70828,1004.74322 C2122.05049,1043.33903 2356.15082,1154.83803 2547.64911,1349.96129 Z" id="Path" fill-opacity="0.9" fill="#FFFFFF"></path>
        <g id="Illustrations/reading-side" transform="translate(1018.000000, 991.000000)">
            <path d="M1323.06582,1014.13225 C1314.97139,1023.49191 1303.01881,1030.4382 1293.84739,1038.9952 C1284.21722,1047.984 1273.76453,1055.83866 1264.172,1064.71816 C1221.8559,1013.00887 1163.88853,981.301746 1113.67154,938.393121 C1089.86492,918.048746 1072.3249,890.455288 1059.48886,862.136204 C1052.90866,847.618329 1048.04699,832.675829 1044.24259,817.210163 C1042.52945,810.244163 1040.85393,803.301454 1039.73394,796.240496 C1038.3774,787.688871 1038.02617,786.959663 1032.25595,780.285704 C1029.77225,777.413663 1024.96075,769.021496 1020.0955,769.945996 C1016.00079,770.725371 1008.51206,783.186413 1005.92442,786.264496 C993.480827,801.069038 981.417136,816.323288 968.315881,830.554496 C948.272448,852.330413 930.024592,873.758746 911.414753,896.838996 C873.345671,944.058371 832.280378,988.507829 790.842351,1032.93937 C787.769084,1036.23425 780.602907,1045.8967 776.187438,1047.19566 C770.81863,1048.77412 762.09342,1042.18975 756.686979,1038.50966 C743.6359,1029.62658 733.349865,1018.63112 722.192922,1007.62133 C700.422009,986.135663 685.679289,955.976538 675.762404,927.281204 C669.825534,910.104496 665.965583,892.298913 659.838762,875.181329 C657.285173,868.046913 651.497038,859.278496 654.435905,853.064996 C655.310397,851.212413 660.879909,846.290704 662.843933,845.914454 C665.166354,845.468329 669.03885,848.652121 669.845246,848.431746 C677.550813,846.322954 673.275119,838.258663 677.859035,833.919246 C680.457424,831.457496 693.673366,831.817621 697.619333,830.464913 C712.046662,825.516329 724.990222,816.077829 738.629074,810.443038 C795.727321,786.857538 853.520861,763.915246 902.81319,725.399788 C915.597263,715.413038 924.091306,707.907746 939.344743,701.452371 C954.75946,694.928913 970.254816,689.109579 985.983132,683.417454 C999.860319,678.395413 1013.81277,673.686913 1028.14871,670.087454 C1043.64944,666.194163 1065.63898,661.258121 1081.12717,666.272996 C1111.54265,676.118204 1121.36456,701.174663 1133.47663,727.607121 C1149.8644,763.368788 1169.67846,797.209788 1191.15907,830.126288 C1232.48241,893.458121 1282.74062,950.287996 1323.06582,1014.13225" id="Accent" fill="#FF5678"></path>
            <g id="ink" stroke-width="1" transform="translate(62.719727, 159.458333)" fill="#000000">
                <path d="M344.349255,294.7822 C342.675534,293.93295 329.608327,299.250617 327.414928,300.064033 C318.653879,303.314117 310.401755,308.7142 302.147839,313.107367 C308.473571,320.804367 314.801095,328.503158 321.125036,336.20195 C327.325329,320.996075 335.294318,308.449033 344.349255,294.7822 L344.349255,294.7822 Z M348.66258,389.391158 C346.510397,389.633033 364.681198,433.290575 366.802917,438.192575 C374.524611,456.02145 382.631584,473.676533 390.455422,491.460617 C398.035548,508.694658 407.651379,524.549117 417.338888,540.649033 C425.62506,554.417992 434.147775,575.785408 446.646921,585.983575 C438.754987,550.977992 439.794342,510.7282 417.157897,481.335908 C393.693551,450.865033 370.494421,421.110825 348.66258,389.391158 L348.66258,389.391158 Z M1260.34577,856.227825 C1225.28186,800.713033 1181.38881,751.601658 1144.825,697.077658 C1124.35149,666.547658 1104.42453,635.627075 1087.19094,603.129825 C1074.65596,579.490575 1066.86438,545.76245 1047.50369,527.689908 C1038.97202,519.727742 1029.85615,511.933992 1018.40712,508.366783 C1002.73973,503.486283 981.167726,508.323783 965.428659,512.183033 C936.099123,519.372992 907.44696,530.538658 879.665705,542.265117 C851.486628,554.1582 827.44526,575.522033 801.984635,592.6862 C774.672882,611.10095 745.108595,624.515158 714.508537,636.257742 C687.865197,646.482783 664.162516,661.161908 637.660744,671.453242 C632.379743,673.5047 621.602702,673.2037 617.172897,675.878658 C612.39903,678.757867 614.27883,687.261117 608.483527,690.398325 C605.86901,691.813742 604.998102,686.682408 602.991071,686.766617 C600.536042,686.868742 598.297843,689.749742 595.932414,691.573658 C586.300456,699.0037 592.201486,703.957658 596.014845,714.180908 C608.445895,747.491575 615.126442,781.382742 632.580446,812.830075 C646.930719,838.67845 667.468742,861.841117 691.649884,878.953325 C695.328844,881.558408 707.319064,891.649075 711.635973,890.9772 C715.522804,890.3752 723.430866,880.04445 726.11527,877.2387 C738.291857,864.507117 749.421921,850.811617 761.59134,838.060325 C780.396506,818.353783 798.499211,798.1187 816.748859,778.143408 C837.933791,754.953867 856.683405,728.679075 875.764538,703.902117 C884.541715,692.503533 895.840226,683.219117 905.595832,672.650075 C918.715006,658.438575 930.760778,643.161033 943.206164,628.360075 C946.969347,623.880908 953.27716,612.4232 959.128014,612.557575 C963.228092,612.652533 970.456989,622.304242 972.602004,625.328575 C980.572785,636.571283 980.536945,656.87445 984.500832,670.908575 C994.174006,705.129408 1011.61547,738.55295 1035.53677,764.960325 C1059.32367,791.220783 1089.79471,809.895325 1117.92899,831.00295 C1148.40719,853.871783 1177.28156,877.274533 1201.45195,906.813742 C1211.04448,897.934242 1221.49717,890.077783 1231.12734,881.090783 C1240.30055,872.531992 1252.25314,865.587492 1260.34577,856.227825 L1260.34577,856.227825 Z M808.998493,1013.28533 C815.815231,1013.3552 827.359245,1017.5477 833.457394,1015.02324 C815.369025,995.012117 798.757257,977.842575 775.871725,963.177783 C752.122453,947.959367 728.452028,932.877117 705.385505,916.644617 C658.899435,883.932367 624.708224,845.137408 605.290197,790.659992 C600.290539,776.631242 596.941305,761.918075 593.276681,747.49695 C591.30549,739.730075 587.381027,703.395075 580.716608,700.257867 C576.768849,698.398117 547.057619,719.276408 542.350055,721.877908 C531.343639,727.9642 520.296007,732.68345 508.916857,737.4457 C484.457956,747.685075 459.242834,755.49495 433.305539,762.014825 C402.209098,769.831867 381.027751,756.897825 361.763835,732.461283 C339.908698,704.737033 321.746857,673.456325 301.764352,644.341742 C292.67716,631.099533 285.149001,617.878825 278.43799,603.273158 C274.045817,593.716408 256.625861,567.932533 262.645163,557.750492 C279.817824,570.822492 285.996613,596.8142 297.694738,614.316992 C312.274386,636.130533 328.705163,656.697075 343.360075,678.490908 C355.683605,696.816075 368.256222,719.023783 386.462863,732.197908 C402.477897,743.784617 417.691911,740.222783 434.927292,735.014408 C455.816545,728.704158 477.469186,725.593825 497.940905,717.766033 C520.095304,709.296825 541.056237,697.281908 562.671247,687.485075 C572.747619,682.916325 584.813102,680.3202 594.308869,674.624492 C602.492897,669.718908 601.27255,667.128158 601.872868,656.68095 C602.575329,644.492242 603.383517,632.294575 603.922907,620.095117 C604.284889,611.898242 599.851501,600.784533 602.860256,594.665992 C578.320715,598.919408 554.336691,604.616908 529.969181,609.656867 C516.627799,612.416033 503.763088,615.827367 490.285514,617.995283 C485.147873,618.821242 478.125055,618.79795 473.525011,621.035742 C469.855011,619.982242 467.984172,620.652325 467.912492,623.0442 C467.736877,624.343158 467.459118,625.6242 467.077423,626.883742 C459.552848,630.305825 455.176803,622.965367 448.650368,615.924117 C440.597155,607.234533 434.567101,597.44845 428.658903,587.237742 C415.448337,564.408325 400.221779,542.936992 387.996808,519.464367 C375.537087,495.536658 365.417707,469.917617 354.853913,445.092283 C345.162819,422.316617 338.95715,397.684783 328.248205,375.448408 C323.468962,365.522575 317.412028,357.31495 310.339035,348.92995 C304.502516,342.010533 295.522843,327.084158 286.806593,323.905742 C284.502091,323.06545 278.466662,324.477283 275.848561,324.29095 C270.63028,323.918283 265.98006,322.002992 260.639923,322.422242 C249.07799,323.327033 236.473117,330.637033 227.233605,337.063742 C233.204523,342.384992 248.140778,348.852908 237.412121,358.438325 C227.000646,367.744242 221.250143,351.051283 217.277297,343.7377 C198.568898,359.097658 201.273014,380.27695 199.111872,401.979408 C197.982917,413.309908 195.013586,424.468408 193.097946,435.6287 C191.718112,443.660742 192.685788,451.9687 192.291549,460.169158 C191.286242,481.008033 189.191403,500.954658 189.289942,521.501492 C189.401066,543.463742 190.89738,564.673492 192.655324,586.476283 C195.613903,623.18395 202.393009,659.904158 208.206232,696.319783 C211.476618,716.789575 215.953014,736.677075 220.298595,756.815408 C225.230158,779.6717 234.35319,801.320408 239.469328,824.117575 C244.682233,817.491992 248.603112,817.459742 257.034435,818.337658 C263.519655,819.013117 267.875988,817.470492 267.496086,826.470033 C267.250583,832.307283 262.100397,836.76495 256.401862,837.784408 C248.97047,839.112033 246.445553,835.405075 242.616066,829.77745 C241.72007,840.434283 248.888039,851.576658 251.72297,861.98445 C254.405583,871.847575 256.183239,881.515408 260.691891,890.9557 C265.091232,900.164867 268.858,909.248617 273.309308,918.369992 C275.359347,922.566075 277.276779,926.82845 279.350114,931.013783 C280.398429,933.133325 281.633112,936.053742 283.197521,937.840033 C286.867521,942.027158 286.283332,939.998992 290.578737,942.3837 C299.93652,947.581325 296.422423,946.28595 296.641047,957.018033 C296.854294,967.604992 302.28403,975.382617 310.99132,981.332742 C329.464967,993.960408 347.685944,997.472075 368.688092,1003.8522 C388.256647,1009.79695 408.868141,1014.89783 429.588947,1014.78137 C454.96714,1014.63983 480.008439,1011.3127 505.386632,1010.97587 C533.384718,1010.60499 561.651603,1010.75728 589.592345,1011.72478 C601.102311,1012.12253 611.791545,1012.63495 622.903688,1015.57328 C635.807824,1018.9882 648.290841,1017.6337 661.591007,1017.11591 C689.965412,1016.01224 719.318244,1013.81745 747.321706,1013.62037 C767.485202,1013.47703 788.759733,1012.07058 808.998493,1013.28533 L808.998493,1013.28533 Z M1544.76898,1024.28258 C1549.81344,1026.94678 1561.12091,1025.85387 1566.19225,1025.11391 C1575.12533,1023.81137 1576.08225,1020.27103 1581.75032,1012.30708 C1591.50593,998.591867 1599.42653,985.457158 1605.16629,969.57045 C1616.1512,939.164075 1620.63655,908.057158 1625.45881,876.2497 C1630.81865,840.907283 1621.03079,804.273075 1617.52924,769.170742 C1616.72464,761.1172 1615.62435,753.137117 1614.35204,745.144492 C1613.59044,740.366117 1613.39153,724.110325 1610.24658,719.973367 C1604.20399,712.025533 1576.10555,718.436117 1565.05792,719.156367 C1534.22132,721.1702 1503.18222,721.641408 1472.35995,721.990783 C1455.92559,722.177117 1439.39984,722.865117 1423.12855,722.992325 C1415.65594,723.05145 1408.34999,722.680575 1400.8505,721.953158 C1398.34172,721.711283 1395.89206,721.134367 1393.36535,720.994617 C1384.71361,720.516242 1385.36411,719.262075 1383.1277,726.92145 C1379.21041,740.341033 1382.22454,757.413825 1381.19593,771.342242 C1379.81968,789.954075 1379.07601,808.829283 1379.41649,827.480533 C1379.73188,844.716367 1379.1441,861.912783 1379.78743,879.186242 C1380.05623,886.340367 1380.83754,892.172242 1382.7245,899.003867 C1384.85877,906.727742 1387.20628,924.773408 1392.52132,930.11795 C1393.12523,930.727117 1397.64284,929.308117 1398.84168,930.823867 C1400.68923,933.158408 1400.35054,938.098033 1401.61927,939.606617 C1405.72472,944.4907 1414.20981,944.8777 1420.3653,947.072492 C1437.25483,953.094283 1452.74839,959.632075 1468.66666,967.751908 C1482.8897,975.006367 1505.82182,981.18045 1514.37321,995.492283 C1518.29409,1002.05337 1518.82273,1010.70533 1522.42821,1017.47424 C1526.53367,1025.18558 1518.31918,1021.15433 1528.37763,1024.28258 C1532.90778,1025.69083 1540.12593,1024.28258 1544.76898,1024.28258 L1544.76898,1024.28258 Z M45.3105583,937.067825 C44.0310758,954.8752 33.9977116,971.836908 30.5051188,989.345075 C28.8708219,997.543742 26.09861,1005.60266 24.1775944,1013.75295 C22.3354264,1021.57178 15.6799674,1030.83112 16.3537565,1038.56753 C40.9183854,1029.81703 65.8001969,1027.61687 91.474069,1025.25724 C115.807531,1023.01945 141.513659,1022.12899 165.642834,1022.11824 C190.230758,1022.1057 216.521076,1019.70487 241.838341,1019.3322 C268.315026,1018.94341 295.191325,1018.2572 321.284523,1015.51237 C307.640295,1005.40916 290.567985,995.920492 280.493405,981.863075 C269.540749,966.58195 263.852965,947.4362 254.215631,931.3112 C234.876452,898.951908 222.581593,858.798867 212.444294,822.444158 C191.977951,749.053908 169.106755,677.018158 163.594587,600.893825 C153.104264,606.265242 144.776877,627.104117 139.524548,637.48145 C132.820705,650.730825 129.310192,665.092825 124.952067,679.175325 C115.97777,708.180617 109.766725,738.255533 98.7782292,766.984908 C77.7760807,821.903075 64.2770036,881.078242 45.3105583,937.067825 L45.3105583,937.067825 Z M1378.75345,509.3307 C1383.29615,542.154033 1392.82238,575.401992 1393.18795,608.621283 C1393.26859,615.929492 1392.03032,624.045742 1393.55351,631.251825 C1395.18064,638.945242 1400.47239,645.746408 1403.52774,653.0582 C1408.37687,664.664617 1420.65739,688.454367 1408.81412,698.288825 C1408.57399,688.956033 1400.03156,677.104158 1395.72899,668.943117 C1389.24377,656.646908 1380.72285,645.4042 1373.69286,633.412575 C1358.97702,608.313117 1342.48711,583.751158 1323.52246,561.624075 C1305.0506,540.070325 1283.76174,520.95145 1264.17347,500.427908 C1258.28857,494.260992 1211.07674,434.90845 1209.20052,435.737992 C1223.84468,492.200575 1248.73904,541.328075 1282.8066,588.602992 C1299.50976,611.7782 1319.55678,627.028867 1339.89051,646.66195 C1356.82305,663.0127 1388.73664,680.495783 1382.8822,707.286575 C1409.35172,704.742408 1435.64741,700.677117 1462.35705,700.677117 C1457.96488,666.877325 1454.60131,633.613242 1446.75955,600.368867 C1437.85694,562.620242 1431.82688,523.742867 1424.29335,485.6592 C1416.6057,446.780033 1403.56537,409.1407 1395.45302,370.334992 C1387.68474,333.175825 1381.01136,296.08295 1375.31641,258.509908 C1370.61064,279.329075 1372.34708,302.196117 1370.67694,323.438117 C1368.97096,345.140575 1369.13583,366.443492 1369.70389,388.273158 C1370.75579,428.820367 1375.07807,468.87845 1378.75345,509.3307 L1378.75345,509.3307 Z M1493.4517,316.01345 C1493.60044,298.657575 1496.96401,281.536408 1498.00157,264.221742 C1498.32054,258.90945 1503.6123,222.665825 1498.67715,220.773825 C1494.61829,229.621075 1493.67212,240.942617 1489.98599,250.225242 C1486.30344,259.498908 1481.37726,268.333617 1477.84345,277.671783 C1470.18806,297.901492 1467.54666,320.791825 1466.72235,342.298992 C1464.85688,390.946325 1463.89279,439.484367 1467.16318,488.1317 C1468.56451,508.983117 1469.63971,529.870367 1469.25622,550.762992 C1468.8351,573.751867 1465.31384,593.705658 1469.58953,616.506408 C1473.82222,639.084992 1476.48153,661.570408 1477.89183,684.478658 C1478.88101,700.557075 1479.27883,699.419367 1494.62187,698.288825 C1505.69818,697.471825 1516.88379,698.344367 1527.97622,697.837325 C1522.7902,635.171992 1521.94258,572.377658 1513.6582,509.952408 C1509.4309,478.105533 1509.318,445.7982 1504.06746,414.069575 C1501.45832,398.308283 1497.08049,382.864117 1494.56453,367.084908 C1491.864,350.142908 1493.19365,333.086242 1493.4517,316.01345 L1493.4517,316.01345 Z M371.471056,276.577075 C401.008464,279.135575 432.427463,287.964908 462.703171,282.134825 C457.712472,280.113825 444.652433,277.325992 450.530168,269.349492 C456.506462,261.238617 466.577458,271.526367 472.537624,270.463908 C476.213,269.808158 484.334308,254.4482 486.599386,251.267992 C491.740612,244.040408 492.360641,242.780867 501.605529,240.928283 C510.561906,239.136617 512.592233,241.076992 513.726564,232.1742 C515.029342,221.936617 511.486574,210.42695 511.837804,199.958242 C512.592233,177.420867 519.864137,157.656992 526.632492,136.452617 C497.876393,142.707325 469.758244,150.124825 440.355236,154.156075 C427.786203,155.879658 408.231984,159.855367 396.81341,151.3127 C393.844079,149.091033 394.318957,146.091783 391.889015,143.517158 C387.814025,139.19745 380.255402,134.729033 374.476227,133.498158 C338.910558,125.928367 335.441261,176.619992 353.264416,195.588367 C357.728268,200.341658 363.939313,202.688742 368.510685,207.044283 C374.612419,212.852867 375.112384,218.971408 376.003005,227.838367 C377.673141,244.465033 375.404479,261.1562 368.309982,276.365658 L371.471056,276.577075 Z M803.063415,515.889992 C813.562697,517.882325 824.520729,517.427242 835.046891,519.127533 C838.786779,519.731325 849.999274,521.838325 853.28758,519.652492 C858.308742,516.314617 860.093566,504.072158 862.467956,498.371075 C866.643298,488.343117 872.551496,479.5962 876.533302,469.385492 C892.804591,427.679075 907.977389,385.806033 927.657048,345.523992 C920.114552,343.563908 914.322834,343.486867 906.721203,342.474575 C898.802389,341.419283 891.623669,336.737658 884.06863,334.725617 C876.888117,332.813908 869.365334,333.301242 862.251125,331.077783 C858.332038,329.854075 854.968468,327.132533 851.104933,326.181158 C844.945856,324.6672 837.758175,323.782117 834.095343,327.824117 C830.34112,331.970033 829.024006,343.338158 826.981134,348.69345 C821.540646,362.960492 815.22029,376.72945 810.663254,391.324367 C806.550631,404.487742 802.644089,417.511367 799.024264,430.794783 C795.200153,444.818158 787.663034,456.3762 783.07195,469.772492 C779.579357,479.968867 776.283883,490.392783 775.762414,501.264617 C775.25528,511.873075 773.710583,512.548533 784.320968,514.24345 C789.677233,515.098075 798.024333,518.280075 803.063415,515.889992 L803.063415,515.889992 Z M1493.85848,1012.38949 C1496.59306,1013.66337 1499.17174,1013.49495 1501.59093,1011.88066 C1477.88287,1001.86883 1454.82173,987.983408 1430.08865,981.114158 C1406.88773,974.673117 1384.3373,966.976117 1361.98578,959.042617 C1343.82394,952.5962 1327.4953,947.577742 1311.07528,936.232908 C1301.10822,929.345742 1292.25399,921.602158 1285.40499,911.538367 C1277.78007,900.333283 1276.08305,884.38745 1267.82555,874.296783 C1256.67936,886.535658 1243.58527,895.80395 1230.398,905.529117 C1225.83559,908.893867 1214.89189,916.22895 1213.33107,921.435533 C1211.36167,928.005575 1216.63729,934.290742 1219.24643,940.939617 C1225.92877,957.967617 1229.19378,974.986658 1232.81898,992.690117 C1234.27229,999.785117 1237.41007,1010.45091 1243.23942,1013.42328 C1248.5473,1016.12691 1263.91901,1014.16145 1270.52429,1013.65978 C1304.9843,1011.04933 1338.83324,1008.37616 1373.50112,1010.7537 C1412.73141,1013.44299 1454.73033,1015.30095 1493.85848,1012.38949 L1493.85848,1012.38949 Z M1562.68711,696.855492 C1568.95012,696.876992 1575.06799,696.094033 1581.3077,696.094033 C1577.7058,679.279242 1586.12637,657.521242 1589.11183,640.736908 C1592.4521,621.962033 1594.99494,602.547533 1597.22238,583.622158 C1601.9174,543.759367 1604.0445,504.380325 1604.10543,464.225492 C1604.16277,425.369617 1611.23756,389.862367 1621.14727,352.5097 C1631.78812,312.394283 1649.21345,276.319075 1663.62107,237.631617 C1647.81749,245.984367 1639.06899,265.529658 1630.76489,280.472158 C1620.2674,299.365283 1613.27505,320.284783 1608.98861,341.494533 C1600.71856,382.410825 1591.6475,423.450742 1582.10514,464.29895 C1572.16854,506.831325 1566.32665,549.754283 1554.94391,591.939075 C1549.39232,612.510992 1541.84445,637.820075 1541.42512,659.0352 C1541.2513,667.810783 1538.60632,686.1897 1542.58454,693.81145 C1546.30472,700.942283 1554.52996,697.582908 1562.68711,696.855492 L1562.68711,696.855492 Z M617.31984,644.083742 C616.990114,648.451825 616.678307,652.6067 615.902375,656.921033 C624.577409,656.838617 635.564113,647.839075 643.004465,643.798867 C652.068361,638.877158 661.143009,633.448408 670.007995,628.501617 C687.12152,618.94845 706.550299,612.654325 724.823244,604.806825 C745.81464,595.791158 765.10902,584.897825 785.182917,574.043908 C792.194982,570.252742 842.589386,548.412325 841.743566,542.446075 C830.679806,542.076992 819.616047,541.7097 808.550495,541.342408 C799.06548,541.027075 784.374728,543.169908 775.29112,540.238742 C770.316549,538.631617 764.73091,532.717325 762.852902,528.085867 C760.994606,523.502783 765.17174,502.423825 762.74359,501.080075 C750.360924,513.720283 742.574718,530.520742 731.503791,544.157117 C719.26986,559.228617 703.460905,568.029283 686.037365,576.038033 C666.796745,584.883492 646.882336,591.733033 627.218805,599.313575 C618.925465,602.509908 619.090329,604.3392 618.368156,613.430117 C617.559967,623.590658 617.647775,633.896325 617.31984,644.083742 L617.31984,644.083742 Z M1617.15651,1026.35374 C1638.0135,1028.59153 1659.38839,1027.31587 1680.40845,1029.06095 C1688.05668,1029.6952 1698.65989,1030.6412 1690.96508,1040.90387 C1686.11953,1047.3682 1670.5973,1045.29524 1663.55656,1045.74316 C1644.65283,1046.94537 1624.63807,1046.29858 1605.69134,1046.01908 C1601.70236,1045.96174 1597.29406,1044.77566 1593.26208,1045.04262 C1588.60828,1045.34899 1583.03518,1048.69583 1578.79354,1048.67074 C1576.17902,1048.65462 1575.24181,1045.89724 1572.98748,1045.64462 C1568.07563,1045.09278 1563.16557,1044.68966 1558.21251,1044.69145 C1483.32515,1044.70758 1409.4664,1043.20258 1334.76542,1043.12195 C1299.04564,1043.08433 1262.75242,1042.46799 1227.04697,1040.79099 C1219.54928,1040.43803 1176.84969,1041.9717 1178.0324,1028.47328 C1178.63989,1021.52162 1192.57621,1020.54158 1197.66189,1019.80341 C1201.43045,1019.25695 1205.34057,1019.34295 1209.1163,1019.14049 C1219.14787,1018.60299 1223.54184,1021.01637 1221.42549,1010.04241 C1213.39916,968.418408 1199.01663,934.018408 1168.28755,904.090408 C1143.16024,879.618033 1112.90424,857.419283 1084.44382,836.983533 C1049.88704,812.16895 1021.85312,786.071533 1001.3366,748.100742 C989.355339,725.927075 979.325558,703.257117 973.170065,678.73995 C970.955163,669.919575 970.903195,659.888033 968.188327,651.384783 C966.100656,644.838033 961.341125,640.256742 958.538449,633.475283 C924.157287,690.891033 878.588717,738.927408 836.806628,790.695825 C816.842043,815.427992 794.067614,838.918533 770.214406,860.434658 C763.136037,866.820158 756.530754,873.48695 749.923678,880.357992 C744.397174,886.109242 735.623581,891.220867 730.957233,897.600992 C726.480837,903.721325 727.582912,903.429283 734.396066,908.290075 C743.402619,914.7132 753.328464,920.050575 762.476584,926.314242 C777.09924,936.327867 793.060514,944.788117 806.134889,956.838867 C820.2755,969.87145 832.629494,984.968033 844.988864,999.663283 C853.226652,1009.45833 864.035949,1022.02687 866.107492,1034.41087 C866.793825,1038.50841 869.399381,1048.64208 865.960548,1051.64312 C863.021681,1054.20699 863.31736,1053.23412 859.668864,1051.66999 C854.887829,1049.62033 853.481115,1044.9172 847.641012,1042.67583 C832.69759,1036.94249 814.614596,1038.91153 799.06548,1038.84166 C783.510988,1038.77178 767.827472,1040.51866 752.280148,1040.45416 C716.777199,1040.30903 682.03047,1043.18287 646.538273,1044.72549 C608.841925,1046.36308 570.683244,1042.43216 533.112336,1042.98937 C505.275529,1043.40145 476.696838,1041.32133 448.091266,1042.86753 C433.377218,1043.66124 418.926593,1041.8212 404.579904,1041.61516 C385.796242,1041.34462 366.505446,1043.89953 347.560505,1044.26324 C316.465856,1044.86345 285.75111,1044.85987 254.46651,1045.60699 C187.17362,1047.2177 120.244504,1048.88037 52.9121891,1049.94641 C43.9307243,1050.08795 34.0980631,1049.78337 25.2223258,1050.79387 C15.8018229,1051.86887 20.6652897,1053.87016 14.2015739,1057.26178 C-3.89396323,1066.75224 0.284962551,1031.57108 0.71862466,1024.65166 C3.04463052,987.571325 12.4597575,951.204075 23.7743961,916.001408 C34.5084293,882.6137 43.2228874,847.669033 52.3136637,813.559283 C62.2645963,776.226325 75.2296598,740.421658 87.0030485,703.455992 C99.0667399,665.576575 108.888649,626.220825 130.799338,592.6432 C135.790036,584.996367 140.947389,576.767242 148.975514,571.945867 C157.974899,566.540408 158.361969,569.697325 158.354801,559.805533 C158.349425,550.488867 158.922863,538.042158 156.724089,529.151908 C154.736769,521.119867 155.0432,525.882117 150.568595,520.11295 C146.927267,515.420575 143.117492,512.213492 140.504767,506.515992 C124.455685,522.786117 87.7180534,514.20045 72.211945,502.484742 C53.2329557,488.144242 38.7769547,463.951367 33.4798258,440.910533 C29.2256364,422.407992 34.4457096,387.139033 54.9281803,378.241617 C64.9131608,373.903992 101.588073,370.625242 103.055715,356.488992 C103.811935,349.191533 90.9042155,338.930658 87.9259245,332.656242 C82.4065885,321.031908 77.1058756,305.569825 75.5719303,292.827492 C72.5757194,267.955575 83.8688542,240.143533 101.858664,223.343075 C134.859992,192.522825 192.925915,176.705992 235.376418,196.260242 C226.405705,161.9982 220.990304,132.441075 225.507917,96.8012417 C229.400124,66.09745 247.518957,48.91895 272.450944,33.6252833 C314.996423,7.52428333 372.852682,-2.7778 421.499894,4.8117 C432.554694,6.537075 443.163288,10.2368667 453.399147,13.180575 C468.269098,17.4572833 486.070749,16.0329083 500.111007,22.9809917 C510.291315,28.0173667 518.021969,38.0507 526.962218,44.7497417 C537.400573,52.5703667 546.073815,64.243075 553.326007,75.0378667 C568.8357,98.1217 562.775182,140.964033 549.793991,164.135658 C547.011027,169.105742 543.572194,173.289283 538.966774,176.680908 C534.171403,180.210492 526.861867,181.308783 524.39071,185.886492 C518.061393,197.61295 524.166711,222.999075 525.010739,235.673325 C525.994543,250.390075 518.552399,261.444658 501.861784,262.6182 C492.20653,263.299033 491.898307,257.698283 487.274967,269.222283 C484.278756,276.691742 481.55672,284.829492 477.232643,291.677242 C468.317482,305.7902 451.988849,304.412408 437.115314,304.030783 C419.897853,303.58645 402.938439,300.8667 385.712018,299.150283 C390.261886,313.725492 402.716232,325.038075 410.493478,338.022283 C421.008888,355.5842 427.338205,370.141492 429.047765,390.602325 C430.359504,406.322408 427.528156,418.736867 416.769035,430.43645 C412.315934,435.279325 408.368175,435.517617 409.473835,441.104033 C410.147624,444.511783 416.041486,450.134033 418.127365,452.853783 C423.644909,460.049117 430.051281,466.6532 434.90758,474.337658 C453.594474,503.903742 459.11381,548.974908 459.160402,583.392825 C459.162194,584.971283 460.00443,588.327075 459.307345,589.959283 C458.791252,591.165075 454.870373,594.983117 454.813029,595.310992 C454.046056,599.736408 458.361173,607.322325 465.133112,608.073033 C472.245529,608.859575 485.27152,602.925575 491.887555,600.976242 C502.474645,597.855158 513.266022,595.551075 523.829816,592.345783 C540.891374,587.169658 557.874084,583.041658 575.218776,578.985325 C583.05695,577.154242 590.938131,575.627742 598.801393,573.914908 C607.75777,571.965575 611.918776,568.1977 616.542116,577.308325 C620.507795,585.127158 618.042013,586.544367 627.648883,582.604492 C637.187658,578.6897 646.507809,573.837867 655.820793,569.419617 C672.246193,561.62945 691.80758,554.68495 705.976862,543.184242 C729.611447,523.997283 738.363537,493.4422 760.983854,473.083492 C767.282707,467.414658 771.040514,467.314325 775.022321,459.46145 C779.28547,451.056742 781.484245,440.278075 783.724235,431.237325 C787.65049,415.406158 790.444206,399.51945 794.004894,383.702617 C798.440075,363.997867 808.025441,346.152867 815.019587,327.358283 C817.745207,320.035742 819.157297,310.728033 823.553053,304.147242 C824.717848,302.402158 826.943503,301.418533 827.852043,299.97445 C830.979069,295.016908 830.946813,293.655242 831.756794,287.690783 C835.546857,259.821408 852.185505,274.482617 870.367057,280.873492 C878.027824,283.566367 914.403473,301.029742 900.513742,312.643325 C917.07175,317.446783 943.591442,314.836325 943.369235,338.561575 C943.254548,350.718033 935.982643,363.72195 932.079684,375.100825 C928.612179,385.204033 925.261154,395.346658 921.739889,405.433742 C914.025363,427.530367 904.665788,448.965867 897.137629,471.130575 C893.705964,481.231992 890.874616,491.569908 886.097165,501.103367 C881.884191,509.51345 871.68238,518.783533 870.001491,527.980158 C914.125715,509.1587 954.945505,481.946867 1004.3346,483.6812 C1025.96036,484.439075 1045.58626,493.5282 1057.52989,512.539575 C1072.50378,536.368742 1082.35615,563.04845 1096.99135,587.097992 C1150.23323,674.583283 1213.73426,754.061617 1272.18188,837.92595 C1276.67082,844.370575 1282.44462,850.464033 1284.00186,858.427992 C1285.01792,863.623825 1283.04673,868.82145 1284.26528,873.813033 C1286.79379,884.186783 1299.5689,897.138742 1308.23139,903.099617 C1324.83599,914.526867 1351.82877,930.6447 1372.54957,929.218533 C1359.54508,897.971867 1359.71891,863.734908 1360.32281,830.404533 C1360.89804,798.743992 1364.32074,767.337867 1368.38319,736.003408 C1369.30248,728.913783 1370.1035,722.34195 1372.141,715.470908 C1374.47955,707.587575 1377.6908,708.3347 1370.6859,701.248658 C1359.90528,690.337408 1347.08178,681.359367 1336.21335,670.31195 C1312.70778,646.421867 1288.61624,627.697158 1270.11571,599.16845 C1252.52194,572.033658 1233.96048,544.114117 1220.93628,514.399325 C1207.5286,483.8102 1202.16875,451.142742 1195.51329,418.747617 C1192.81276,405.602158 1182.96397,390.926617 1184.94233,377.198867 C1187.44395,359.850158 1195.48999,372.4832 1198.76575,381.819575 C1208.76149,410.319617 1232.1667,435.827575 1251.55247,458.748367 C1272.49727,483.5092 1298.1138,504.226242 1319.97611,528.266825 C1343.78272,554.450242 1360.08985,584.541283 1381.26045,612.491283 C1381.26045,577.804617 1369.41538,542.4837 1364.56983,508.1697 C1360.30668,477.967575 1358.96806,447.670492 1356.27291,417.337575 C1350.15325,348.433658 1355.44142,277.499783 1364.03044,209.088575 C1368.1126,176.598492 1365.79735,144.87345 1365.92099,112.272283 C1365.96042,101.896742 1361.66501,77.9833667 1367.13955,68.7759917 C1377.62449,51.1406167 1383.74056,89.7026583 1384.27099,95.4521167 C1387.44103,129.701617 1381.75504,163.569492 1384.65986,197.672075 C1387.69549,233.285033 1394.28285,267.898242 1399.8882,303.099117 C1405.96127,341.213242 1415.84769,378.467367 1425.31299,415.850492 C1435.25138,455.100533 1443.60923,495.169367 1454.65865,534.105867 C1457.63874,521.866992 1453.45802,506.831325 1452.63191,494.3667 C1451.45278,476.528867 1449.15007,458.68745 1448.95116,440.803033 C1448.63218,412.299408 1448.40998,383.267242 1450.02277,354.8962 C1451.61227,326.931867 1451.13201,297.629158 1459.71028,270.687867 C1463.78169,257.900742 1469.7526,245.425367 1475.5945,233.379992 C1482.80189,218.527075 1485.3501,204.125658 1489.34087,188.328533 C1492.75999,174.799658 1497.76323,161.627325 1500.04086,147.827908 C1501.45653,139.245825 1505.40787,113.911658 1515.23516,133.105783 C1520.94086,144.246367 1518.47508,160.76195 1518.63457,172.730283 C1518.83885,188.074117 1516.48955,202.993325 1516.12936,218.272658 C1515.42869,248.250825 1514.92514,278.193158 1512.68874,308.121158 C1510.34302,339.520117 1512.39127,367.660033 1518.36577,398.598533 C1524.90475,432.464617 1526.8186,466.404158 1530.20725,500.684117 C1531.95444,518.383992 1534.90048,535.985325 1536.32332,553.710283 C1537.07596,563.096825 1533.21601,590.013033 1539.94315,596.697742 C1540.59364,580.440158 1545.25282,564.168242 1548.78484,548.326325 C1552.96914,529.558617 1554.65899,509.828783 1557.743,490.792325 C1562.73729,459.950575 1572.42838,430.497367 1578.84013,400.001408 C1592.05607,337.1372 1603.0374,256.341992 1658.42429,215.194575 C1665.67111,209.810617 1673.63472,205.8367 1681.46931,201.405908 C1685.90449,198.897575 1692.49365,192.408158 1697.56857,191.275825 C1703.10762,190.039575 1705.4175,190.999908 1707.66286,197.424825 C1710.79347,206.381367 1705.06806,210.564908 1699.72255,217.07045 C1681.22381,239.58095 1673.32112,268.437533 1661.89897,294.837742 C1635.74305,355.290367 1624.17036,419.0522 1624.03776,484.397867 C1623.96787,518.606158 1621.60781,551.5997 1617.95932,585.600158 C1614.03306,622.191367 1608.86317,660.891367 1597.74385,696.092242 C1608.89542,698.591617 1620.99495,694.86495 1624.02163,707.825867 C1624.7653,711.009658 1623.42131,714.77395 1624.24383,718.918075 C1625.04306,722.945742 1626.96587,726.951908 1628.10379,730.913283 C1630.45488,739.106575 1631.69852,747.190575 1632.84181,755.604242 C1637.26266,788.119408 1644.85354,819.045367 1645.66173,852.013825 C1646.4054,882.488283 1640.43807,913.364075 1634.94024,943.252658 C1629.40119,973.356242 1613.51518,999.018283 1601.00886,1026.24266 C1606.39201,1026.24266 1611.77336,1026.2982 1617.15651,1026.35374 L1617.15651,1026.35374 Z" id="ink-layer"></path>
                <path d="M909.318516,957.153842 C903.387022,958.830842 874.752779,961.994925 874.758155,970.978342 C874.761739,976.365883 903.35835,976.260175 908.418936,976.84605 C908.719991,970.283175 909.019254,963.718508 909.318516,957.153842 M972.523873,1019.14372 C989.024537,1022.28093 1011.42265,1017.86984 1021.97211,1003.32509 C1026.90188,996.5293 1029.23863,986.193175 1030.84426,978.0823 C1032.3782,970.35305 1037.10727,951.065758 1033.88885,943.820258 C1029.93751,934.922842 992.024332,944.221592 980.983868,945.242842 C961.721744,947.020175 941.803751,947.2298 922.529083,945.973842 C922.529083,965.872092 921.511231,985.265092 933.216524,1002.39163 C941.662183,1014.74876 957.521314,1017.66559 972.523873,1019.14372 M969.206895,1043.7218 C951.278013,1037.16072 932.454927,1041.42488 920.780098,1022.18059 C917.817935,1017.2983 915.323482,1012.04872 913.53149,1006.62534 C912.655206,1004.24959 911.974249,1001.81651 911.490411,999.3243 C912.402535,993.96005 910.436719,992.447883 905.594756,994.786008 C896.091822,992.9388 885.671387,999.460467 875.661319,997.538008 C851.383409,992.876092 855.793502,958.105217 872.086295,946.0688 C875.304713,943.689467 878.519547,943.028342 882.203882,941.853008 C890.325191,939.265842 894.720948,942.1558 902.148756,941.421217 C908.151929,940.828175 909.802354,934.53405 916.253526,931.762342 C920.477252,929.949175 926.34065,930.088925 930.781207,929.906175 C954.019761,928.951217 977.331788,928.960175 1000.71908,927.446217 C1011.62693,926.7403 1023.40391,928.467467 1034.08956,926.604133 C1039.0928,925.7298 1038.37421,922.400883 1043.11224,925.3213 C1048.01692,928.345633 1045.89878,939.529217 1045.65149,943.988675 C1044.21969,969.776133 1042.68395,997.4323 1028.86769,1019.97684 C1016.22698,1040.6043 991.352335,1042.71488 969.206895,1043.7218" id="ink-layer"></path>
                <path d="M22.3402648,1050.82612 C28.1086876,1050.76341 33.8753185,1050.70249 39.6240294,1050.64337 C33.8484386,1050.70608 28.0943517,1050.7652 22.3402648,1050.82612" id="ink-layer"></path>
                <path d="M1624.07324,501.005721 C1624.06249,495.465888 1624.04994,489.926054 1624.0374,484.396971 C1624.04815,489.940388 1624.06069,495.473054 1624.07324,501.005721" id="ink-layer"></path>
                <path d="M156.741471,523.755946 C156.723551,529.152446 156.705631,534.548946 156.687711,539.932904 C156.703839,534.532821 156.721759,529.143487 156.741471,523.755946" id="ink-layer"></path>
                <path d="M636.223566,1044.70829 C640.812858,1044.71546 645.40215,1044.72083 649.969938,1044.73338 C645.373478,1044.728 640.800314,1044.71904 636.223566,1044.70829" id="ink-layer"></path>
                <path d="M357.573978,1043.60785 C362.16327,1043.62218 366.75077,1043.63652 371.318558,1043.65443 C366.722098,1043.64189 362.148934,1043.62397 357.573978,1043.60785" id="ink-layer"></path>
                <path d="M1360.92868,819.485938 C1360.72798,823.128396 1360.52369,826.769063 1360.32299,830.404354 C1360.52548,826.758313 1360.72798,823.123021 1360.92868,819.485938" id="ink-layer"></path>
                <path d="M1617.15722,1026.35338 C1613.61087,1026.31576 1610.06452,1026.27993 1606.51816,1026.2423 C1610.08065,1024.75701 1613.627,1024.8233 1617.15722,1026.35338" id="ink-layer"></path>
                <path d="M1302.29344,1042.48197 C1304.83986,1042.44255 1307.38449,1042.40313 1309.90583,1042.36013 C1307.35403,1042.39776 1304.82374,1042.44076 1302.29344,1042.48197" id="ink-layer"></path>
                <path d="M1622.69251,545.953979 C1622.75523,543.200188 1622.81795,540.448188 1622.88067,537.705146 C1622.81795,540.460729 1622.75523,543.207354 1622.69251,545.953979" id="ink-layer"></path>
                <path d="M1384.66021,197.672613 C1384.45055,194.832821 1384.24089,191.994821 1384.02943,189.162196 C1384.24089,192.003779 1384.45055,194.838196 1384.66021,197.672613" id="ink-layer"></path>
                <path d="M1623.94905,511.850321 C1623.9831,509.003362 1624.01715,506.158196 1624.0512,503.321987 C1624.01715,506.170737 1623.9831,509.010529 1623.94905,511.850321" id="ink-layer"></path>
                <path d="M823.493738,1038.95113 C825.757025,1038.98517 828.020311,1039.01742 830.263885,1039.04609 C827.997015,1039.01025 825.744481,1038.98159 823.493738,1038.95113" id="ink-layer"></path>
                <path d="M1406.43901,1043.59298 C1408.65033,1043.63598 1410.86344,1043.68077 1413.05505,1043.72735 C1410.83477,1043.68435 1408.63779,1043.63777 1406.43901,1043.59298" id="ink-layer"></path>
                <path d="M1645.40744,843.445896 C1645.24795,840.948313 1645.08847,838.452521 1644.93256,835.960313 C1645.09205,838.457896 1645.24975,840.951896 1645.40744,843.445896" id="ink-layer"></path>
                <path d="M1605.69134,1046.01979 C1607.49229,1046.00904 1609.29324,1045.99829 1611.07269,1045.99471 C1609.26636,1046.00725 1607.47796,1046.01442 1605.69134,1046.01979" id="ink-layer"></path>
                <path d="M1360.33535,1043.70675 C1362.11839,1043.66375 1363.90142,1043.61896 1365.66653,1043.57775 C1363.87633,1043.62254 1362.10405,1043.66554 1360.33535,1043.70675" id="ink-layer"></path>
                <path d="M959.487309,1042.34544 C961.451332,1042.33469 963.413564,1042.32394 965.357875,1042.30961 C963.390268,1042.32036 961.438788,1042.3329 959.487309,1042.34544" id="ink-layer"></path>
                <path d="M506.815029,1042.33756 C508.680493,1042.3501 510.547749,1042.36443 512.393501,1042.38056 C510.520869,1042.36981 508.667949,1042.35368 506.815029,1042.33756" id="ink-layer"></path>
                <path d="M396.695138,1042.63945 C398.598234,1042.53375 400.497746,1042.42625 402.382922,1042.32233 C400.47445,1042.42983 398.58569,1042.53375 396.695138,1042.63945" id="ink-layer"></path>
                <path d="M923.9082,317.698512 C921.076852,317.454846 918.245505,317.211179 915.414157,316.965721 C918.249089,317.164596 921.247091,315.487596 923.9082,317.698512" id="ink-layer"></path>
                <path d="M1645.67517,1027.42946 C1642.88324,1027.14817 1640.09132,1026.86508 1637.29939,1026.582 C1640.09311,1026.86508 1642.88324,1027.14817 1645.67517,1027.42946" id="ink-layer"></path>
                <path d="M1450.93597,334.885613 C1450.7496,337.331238 1450.55965,339.778654 1450.37328,342.217113 C1450.56144,339.767904 1450.7496,337.325863 1450.93597,334.885613" id="ink-layer"></path>
                <path d="M1624.6508,436.853125 C1624.84075,434.534708 1625.0307,432.216292 1625.22065,429.906833 C1625.0307,432.228833 1624.83896,434.540083 1624.6508,436.853125" id="ink-layer"></path>
                <path d="M1449.82476,372.8229 C1449.62405,375.264942 1449.42156,377.705192 1449.22265,380.138275 C1449.42335,377.694442 1449.62405,375.257775 1449.82476,372.8229" id="ink-layer"></path>
                <path d="M1623.46772,530.44585 C1623.4498,528.086225 1623.43188,525.7266 1623.41576,523.374142 C1624.93895,525.7266 1624.87802,528.08085 1623.46772,530.44585" id="ink-layer"></path>
                <path d="M1360.96882,869.306992 C1360.94732,871.671992 1360.92761,874.038783 1360.90252,876.393033 C1359.3399,874.008325 1359.65171,871.652283 1360.96882,869.306992" id="ink-layer"></path>
                <path d="M1538.91866,595.679717 C1538.64628,593.28605 1538.37211,590.890592 1538.09972,588.504092 C1538.3739,590.901342 1538.64628,593.291425 1538.91866,595.679717" id="ink-layer"></path>
                <path d="M65.4249538,375.967992 C63.5738258,378.413617 61.0524928,376.738408 58.8519264,377.035825 C61.0453249,376.679283 63.2351393,376.324533 65.4249538,375.967992" id="ink-layer"></path>
                <path d="M980.760227,929.141492 C978.421677,929.145075 976.083128,929.146867 973.744578,929.15045 C976.08492,929.146867 978.421677,929.143283 980.760227,929.141492" id="ink-layer"></path>
                <path d="M1354.3854,386.017092 C1354.60402,388.005842 1354.82086,389.994592 1355.03948,391.976175 C1354.82086,389.983842 1354.60402,388.000467 1354.3854,386.017092" id="ink-layer"></path>
                <path d="M198.644879,188.500713 C196.293785,188.547296 193.942691,188.593879 191.591597,188.640463 C193.917603,187.271629 196.261529,186.875671 198.644879,188.500713" id="ink-layer"></path>
                <path d="M1449.76705,407.224154 C1449.61473,409.309654 1449.46241,411.393362 1449.31189,413.469904 C1449.46421,411.384404 1449.61473,409.304279 1449.76705,407.224154" id="ink-layer"></path>
                <path d="M1385.29207,151.226521 C1385.47485,149.325563 1385.65584,147.424604 1385.83684,145.534396 C1385.65405,147.438938 1385.47485,149.332729 1385.29207,151.226521" id="ink-layer"></path>
                <path d="M1366.81735,145.271558 C1366.63277,147.333767 1366.4482,149.397767 1366.26541,151.452808 C1366.44999,149.387017 1366.63277,147.328392 1366.81735,145.271558" id="ink-layer"></path>
                <path d="M345.572468,7.50744167 C343.180159,7.79769167 340.787849,8.08794167 338.397332,8.3764 C340.789641,8.08615 343.180159,7.79769167 345.572468,7.50744167" id="ink-layer"></path>
                <path d="M172.781772,190.142954 C170.326743,190.393787 167.871714,190.644621 165.418476,190.895454 C167.873506,190.644621 170.328535,190.393787 172.781772,190.142954" id="ink-layer"></path>
                <path d="M1518.09016,196.188038 C1518.24069,194.269163 1518.38942,192.348496 1518.53816,190.440371 C1518.38942,192.361038 1518.2389,194.274538 1518.09016,196.188038" id="ink-layer"></path>
                <path d="M92.2034098,512.875513 C93.6172917,512.897013 95.0293815,512.916721 96.4217594,512.938221 C95.0025016,512.916721 93.6029557,512.897013 92.2034098,512.875513" id="ink-layer"></path>
                <path d="M1366.88903,749.708046 C1366.74746,751.832963 1366.60589,753.956088 1366.46432,756.075629 C1366.60768,753.950713 1366.74925,751.829379 1366.88903,749.708046" id="ink-layer"></path>
                <path d="M1511.11824,336.18905 C1511.06089,334.141175 1511.00534,332.095092 1510.9462,330.052592 C1511.00713,332.102258 1511.06268,334.144758 1511.11824,336.18905" id="ink-layer"></path>
                <path d="M405.795054,2.66187917 C403.614199,2.66187917 401.433345,2.66367083 399.256074,2.66367083 C401.436929,1.1658375 403.615991,1.2034625 405.795054,2.66187917" id="ink-layer"></path>
                <path d="M988.033207,484.662138 C985.644481,484.723054 983.255756,484.783971 980.870614,484.844888 C983.216332,483.185804 985.606849,483.144596 988.033207,484.662138" id="ink-layer"></path>
                <path d="M1196.78112,1038.868 C1198.1968,1038.89666 1199.61426,1038.92712 1201.01202,1038.96116 C1199.58917,1038.93429 1198.18425,1038.90025 1196.78112,1038.868" id="ink-layer"></path>
                <path d="M1250.10508,1041.35608 C1251.51896,1041.30592 1252.93284,1041.25575 1254.32701,1041.20738 C1252.90775,1041.25754 1251.50641,1041.30771 1250.10508,1041.35608" id="ink-layer"></path>
                <path d="M415.582736,1042.33935 C417.057546,1042.37698 418.532355,1042.4146 419.987453,1042.45043 C418.507267,1042.41281 417.045002,1042.37698 415.582736,1042.33935" id="ink-layer"></path>
                <path d="M1644.18244,819.751821 C1643.97277,817.727238 1643.76311,815.700863 1643.55165,813.685238 C1643.76311,815.713404 1643.97277,817.732613 1644.18244,819.751821" id="ink-layer"></path>
                <path d="M1451.57302,478.442904 C1451.74147,480.372529 1451.90813,482.302154 1452.07299,484.219238 C1451.90633,482.287821 1451.73968,480.365363 1451.57302,478.442904" id="ink-layer"></path>
                <path d="M1525.69573,445.31445 C1525.46636,443.268367 1525.23698,441.222283 1525.0094,439.183367 C1525.23878,441.231242 1525.46636,443.27195 1525.69573,445.31445" id="ink-layer"></path>
                <path d="M427.547509,1043.55965 C429.034863,1043.53636 430.524008,1043.51307 431.995234,1043.49336 C430.500713,1043.51845 429.024111,1043.53815 427.547509,1043.55965" id="ink-layer"></path>
                <path d="M969.206895,1043.72162 C970.654825,1043.65533 972.099171,1043.59083 973.52918,1043.52633 C972.079459,1043.59262 970.642281,1043.65712 969.206895,1043.72162" id="ink-layer"></path>
                <path d="M1513.59799,295.908979 C1513.53169,293.836021 1513.46718,291.763062 1513.40267,289.693688 C1513.46897,291.768438 1513.53348,293.837813 1513.59799,295.908979" id="ink-layer"></path>
                <path d="M286.51199,1044.91398 C287.963504,1044.90323 289.413225,1044.89068 290.845027,1044.88173 C289.386345,1044.89427 287.95096,1044.90502 286.51199,1044.91398" id="ink-layer"></path>
                <path d="M1512.99069,1044.89391 C1514.48163,1044.90824 1515.97435,1044.92437 1517.44737,1044.94049 C1515.94747,1044.92616 1514.46908,1044.91003 1512.99069,1044.89391" id="ink-layer"></path>
                <path d="M1545.20282,1044.71618 C1546.64358,1044.8183 1548.08255,1044.92222 1549.5054,1045.02076 C1548.05926,1044.91863 1546.63104,1044.8183 1545.20282,1044.71618" id="ink-layer"></path>
                <path d="M1558.21233,1044.69091 C1559.67818,1044.73391 1561.14582,1044.7787 1562.59375,1044.81095 C1561.12252,1044.76616 1559.66742,1044.72854 1558.21233,1044.69091" id="ink-layer"></path>
                <path d="M1625.00955,453.531033 C1624.91279,451.492117 1624.81781,449.451408 1624.72283,447.417867 C1624.8196,449.460367 1624.91279,451.4957 1625.00955,453.531033" id="ink-layer"></path>
                <path d="M640.609109,1017.96462 C645.069377,1017.7335 649.531438,1017.50058 653.993498,1017.26766 C649.531438,1017.50058 645.069377,1017.7317 640.609109,1017.96462" id="ink-layer"></path>
                <path d="M371.470698,276.577613 C375.343193,276.914446 379.215688,277.251279 383.084599,277.584529 C379.212104,277.249488 375.341401,276.912654 371.470698,276.577613" id="ink-layer"></path>
                <path d="M1464.85025,444.907742 C1464.97031,448.602158 1465.09396,452.296575 1465.21403,455.980242 C1465.09217,452.284033 1464.97031,448.596783 1464.85025,444.907742" id="ink-layer"></path>
                <path d="M1544.7688,1024.28186 C1548.81154,1024.52732 1552.85248,1024.77098 1556.89521,1025.01644 C1552.82739,1025.20098 1548.69864,1026.36019 1544.7688,1024.28186" id="ink-layer"></path>
                <path d="M1520.84642,587.283071 C1520.87689,583.758863 1520.90735,580.234654 1520.93602,576.719404 C1520.90556,580.245404 1520.87689,583.764238 1520.84642,587.283071" id="ink-layer"></path>
                <path d="M1510.49874,698.009504 C1514.0451,698.056088 1517.59503,698.104463 1521.13959,698.151046 C1517.59145,698.102671 1514.0451,698.056088 1510.49874,698.009504" id="ink-layer"></path>
                <path d="M617.57735,636.0517 C617.48775,638.737408 617.399943,641.423117 617.315719,644.096283 C617.405319,641.406992 617.491334,638.730242 617.57735,636.0517" id="ink-layer"></path>
                <path d="M1569.53306,522.327271 C1569.38791,525.000438 1569.24276,527.671813 1569.10119,530.330646 C1569.24813,527.655688 1569.39149,524.991479 1569.53306,522.327271" id="ink-layer"></path>
                <path d="M1493.85812,1012.38931 C1496.43859,1012.21373 1499.01906,1012.03994 1501.59415,1011.87331 C1499.65343,1013.42669 1497.70195,1013.55569 1493.85812,1012.38931" id="ink-layer"></path>
                <path d="M1476.58905,663.016821 C1476.76646,665.897821 1476.94387,668.778821 1477.11948,671.650863 C1476.94208,668.768071 1476.76646,665.892446 1476.58905,663.016821" id="ink-layer"></path>
                <path d="M511.753581,208.284296 C511.780461,205.501838 511.80734,202.719379 511.836012,199.947671 C511.809132,202.733713 511.782253,205.509004 511.753581,208.284296" id="ink-layer"></path>
                <path d="M1479.71286,698.591258 L1489.33048,698.381633 C1486.15686,699.9153 1482.95099,699.96905 1479.71286,698.591258" id="ink-layer"></path>
                <path d="M1568.44281,719.124654 C1566.17415,719.144362 1563.90728,719.162279 1561.65474,719.185571 C1563.92878,719.167654 1566.18669,719.146154 1568.44281,719.124654" id="ink-layer"></path>
                <path d="M737.905145,1013.49674 C741.044715,1013.53795 744.184286,1013.57916 747.323856,1013.61858 C744.16099,1015.2042 741.017836,1015.42816 737.905145,1013.49674" id="ink-layer"></path>
                <path d="M146.493426,1022.7455 C149.679588,1022.46063 152.867542,1022.17575 156.053704,1021.89088 C152.867542,1022.17575 149.679588,1022.46063 146.493426,1022.7455" id="ink-layer"></path>
                <path d="M1465.95609,468.635858 C1466.11199,471.527608 1466.2679,474.419358 1466.4238,477.30215 C1466.2679,474.406817 1466.11199,471.522233 1465.95609,468.635858" id="ink-layer"></path>
                <path d="M448.925259,283.366417 C451.611456,282.042375 454.319156,281.820208 457.053736,283.223083 C454.342452,283.271458 451.634752,283.319833 448.925259,283.366417" id="ink-layer"></path>
                <path d="M1378.08898,502.027508 C1378.31119,504.465967 1378.53339,506.906217 1378.7556,509.337508 C1378.5316,506.895467 1378.31119,504.460592 1378.08898,502.027508" id="ink-layer"></path>
                <path d="M1605.00357,445.110738 C1603.62374,442.724238 1603.67212,440.350279 1605.07167,437.997821 C1605.04837,440.371779 1605.02687,442.742154 1605.00357,445.110738" id="ink-layer"></path>
                <path d="M1466.39549,362.263533 C1466.39549,364.676908 1466.39728,367.092075 1466.39728,369.498283 C1466.39549,367.079533 1466.39549,364.671533 1466.39549,362.263533" id="ink-layer"></path>
                <path d="M1562.68693,696.855671 C1565.45198,696.008213 1568.21702,694.809588 1570.96952,696.884338 C1568.20806,696.875379 1565.44839,696.864629 1562.68693,696.855671" id="ink-layer"></path>
                <path d="M669.18995,1016.87278 C671.972914,1016.61299 674.754086,1016.35499 677.535258,1016.0952 C674.754086,1016.35499 671.972914,1016.61299 669.18995,1016.87278" id="ink-layer"></path>
                <path d="M287.773732,1016.87797 C290.321944,1015.75818 292.864781,1015.17052 295.375362,1016.96397 C292.839694,1016.93352 290.307609,1016.90664 287.773732,1016.87797" id="ink-layer"></path>
                <path d="M808.998493,1013.28515 C811.724113,1012.09548 814.442565,1011.44152 817.132345,1013.36935 C814.419269,1013.34069 811.709777,1013.31381 808.998493,1013.28515" id="ink-layer"></path>
                <path d="M202.430104,660.818446 C202.634391,663.278404 202.84047,665.738363 203.042965,668.191154 C202.836886,665.729404 202.632599,663.274821 202.430104,660.818446" id="ink-layer"></path>
                <path d="M835.04725,519.127175 C837.72807,518.152508 840.39993,517.643675 843.032367,519.2723 C840.369466,519.222133 837.708358,519.17555 835.04725,519.127175" id="ink-layer"></path>
                <path d="M1465.91416,592.351875 C1466.06289,594.756292 1466.21163,597.160708 1466.35857,599.55975 C1466.20984,597.153542 1466.0611,594.752708 1465.91416,592.351875" id="ink-layer"></path>
                <path d="M200.697606,375.395733 C200.475399,377.332525 200.253192,379.271108 200.032777,381.19715 C200.254984,379.256775 200.475399,377.32715 200.697606,375.395733" id="ink-layer"></path>
                <path d="M45.3105583,937.067467 C45.1725749,938.954092 45.0363834,940.838925 44.900192,942.713008 C45.0417594,940.824592 45.1761588,938.945133 45.3105583,937.067467" id="ink-layer"></path>
                <path d="M1522.03469,605.076471 C1521.88417,603.127137 1521.73364,601.177804 1521.58311,599.237429 C1521.73364,601.190346 1521.88417,603.134304 1522.03469,605.076471" id="ink-layer"></path>
                <path d="M1326.79858,1009.64484 C1329.1873,1009.66096 1331.57603,1009.67888 1333.96296,1009.695 C1331.57424,1009.67888 1329.18551,1009.66096 1326.79858,1009.64484" id="ink-layer"></path>
                <path d="M616.672573,652.639487 C617.118779,654.058487 617.564985,655.479279 618.011191,656.900071 C615.031108,657.620321 614.584902,656.199529 616.672573,652.639487" id="ink-layer"></path>
                <path d="M795.786134,515.919196 C798.212492,515.908446 800.638849,515.899488 803.065207,515.888738 C800.642433,517.038988 798.217868,517.829113 795.786134,515.919196" id="ink-layer"></path>
                <path d="M203.789867,672.465175 C203.872299,674.615175 203.954731,676.766967 204.033578,678.9098 C203.949355,676.758008 203.868715,674.611592 203.789867,672.465175" id="ink-layer"></path>
                <path d="M229.458722,1019.23043 C231.800856,1019.22864 234.141197,1019.22685 236.483331,1019.22506 C234.139405,1019.22685 231.800856,1019.22864 229.458722,1019.23043" id="ink-layer"></path>
                <path d="M1383.97961,695.134775 C1384.06563,697.114567 1384.15344,699.094358 1384.24125,701.0634 C1384.15702,699.078233 1384.06742,697.1074 1383.97961,695.134775" id="ink-layer"></path>
                <path d="M179.738107,1021.64327 C182.040817,1020.11498 184.348902,1020.24756 186.660572,1021.61819 C184.352486,1021.62715 182.044401,1021.6361 179.738107,1021.64327" id="ink-layer"></path>
                <path d="M240.37518,347.737775 C240.498827,349.758775 240.624267,351.781567 240.75329,353.790025 C240.629643,351.765442 240.502411,349.751608 240.37518,347.737775" id="ink-layer"></path>
                <path d="M167.757564,1021.85236 C170.151665,1021.86132 172.545767,1021.87207 174.938076,1021.88282 C172.536807,1023.51682 170.144497,1023.59386 167.757564,1021.85236" id="ink-layer"></path>
                <path d="M1493.45206,316.012733 C1493.47177,313.959483 1493.48969,311.908025 1493.50761,309.86015 C1493.4879,311.915192 1493.46998,313.963067 1493.45206,316.012733" id="ink-layer"></path>
                <path d="M394.334368,280.106838 C396.624534,280.406046 398.9147,280.705254 401.203074,281.002671 C398.912908,280.703463 396.622742,280.406046 394.334368,280.106838" id="ink-layer"></path>
                <path d="M192.241732,457.3007 C192.272196,459.217783 192.30266,461.136658 192.3385,463.044783 C192.308036,461.124117 192.27578,459.212408 192.241732,457.3007" id="ink-layer"></path>
                <path d="M1508.86946,457.026037 C1508.74402,455.073121 1508.61859,453.120204 1508.49315,451.176246 C1508.61859,453.132746 1508.74582,455.080287 1508.86946,457.026037" id="ink-layer"></path>
                <path d="M974.726231,1019.56297 C977.552203,1019.81917 980.378174,1020.07538 983.202354,1020.3298 C980.376382,1020.07359 977.552203,1019.81917 974.726231,1019.56297" id="ink-layer"></path>
                <path d="M965.28512,946.421221 C963.756551,946.446304 962.231566,946.469596 960.717332,946.501846 C962.249486,946.482138 963.767303,946.451679 965.28512,946.421221" id="ink-layer"></path>
                <path d="M965.414681,1018.44407 C967.783695,1018.67699 970.156293,1018.9117 972.525306,1019.14461 C970.154501,1018.9099 967.783695,1018.67699 965.414681,1018.44407" id="ink-layer"></path>
                <path d="M538.882013,858.863187 C541.966031,876.285354 514.885445,893.324104 512.738639,868.557896 C511.953746,859.501021 518.01068,853.133438 524.79337,847.597188 C534.419952,839.740729 539.797721,847.263937 538.882013,858.863187" id="ink-layer"></path>
                <path d="M240.385753,646.303975 C246.765245,648.914433 295.50564,664.793975 270.188375,672.781225 C263.486324,674.895392 253.356192,675.210725 247.546553,671.48585 C240.557784,667.0031 233.508087,653.775225 240.385753,646.303975" id="ink-layer"></path>
                <path d="M252.380273,410.369962 C268.923945,408.449296 284.166631,435.616337 263.770175,434.734837 C248.92352,434.091629 228.957143,410.369962 252.380273,410.369962" id="ink-layer"></path>
                <path d="M311.561353,476.9818 C325.37582,489.03255 299.770044,516.002508 289.604072,505.564258 C284.412671,500.232258 289.200874,488.745883 293.485527,484.284633 C297.883076,479.706925 305.706914,478.846925 311.561353,476.9818" id="ink-layer"></path>
                <path d="M352.687932,789.392388 C344.532575,790.687763 308.667644,802.405263 316.147419,781.122054 C319.000271,773.005804 326.956716,775.413804 334.230412,775.786471 C345.953625,776.384888 352.687932,775.824096 352.687932,789.392388" id="ink-layer"></path>
                <path d="M329.063024,844.212371 C341.271866,850.742996 323.425416,887.289413 313.306036,879.513579 C299.265777,868.724163 318.468766,847.494704 329.063024,844.212371" id="ink-layer"></path>
                <path d="M382.3101,814.833517 C388.24697,812.409392 416.232512,839.323808 405.579119,846.811183 C400.118919,850.648933 389.773748,844.069933 386.481858,840.103183 C380.310237,832.664183 379.751135,823.487267 382.3101,814.833517" id="ink-layer"></path>
                <path d="M220.847124,594.843367 C226.91481,595.839533 237.390796,596.154867 237.783242,604.679617 C238.127305,612.172367 228.73189,614.600075 222.117647,615.187742 C215.254317,615.796908 206.168916,613.860117 206.038101,605.233242 C205.900117,595.925533 220.632085,596.486325 220.847124,594.843367" id="ink-layer"></path>
                <path d="M370.474888,965.812071 C376.936812,969.734029 407.07812,983.855946 394.157857,994.057696 C389.323062,997.875738 374.666358,989.990613 371.3673,985.982654 C367.430293,981.198904 363.582886,969.992029 370.474888,965.812071" id="ink-layer"></path>
                <path d="M454.2645,863.339667 C453.330872,847.752167 479.633734,841.547625 474.180701,863.672917 C472.643172,869.9115 471.155819,879.380458 463.441292,879.742375 C454.323636,880.170583 453.993909,869.38475 454.2645,863.339667" id="ink-layer"></path>
                <path d="M373.012349,592.277521 C373.195132,604.102521 350.533599,614.530021 350.357984,595.787396 C350.20208,579.038896 373.858169,574.136896 373.012349,592.277521" id="ink-layer"></path>
                <path d="M358.048318,530.691667 C363.632166,532.4905 371.052805,533.416792 371.543811,540.51 C372.065281,548.017083 365.090847,551.358542 358.815291,550.9375 C353.668689,550.591708 346.052722,546.782625 345.117302,541.199792 C343.746428,533.004708 351.745881,532.469 358.048318,530.691667" id="ink-layer"></path>
                <path d="M254.21599,747.184125 C254.121014,737.426708 273.678817,725.70025 277.280721,737.021792 C278.432972,740.644542 269.214965,756.889583 266.148866,758.106125 C258.036517,761.32575 256.903978,753.82225 254.21599,747.184125" id="ink-layer"></path>
                <path d="M414.481915,909.58545 C407.873048,915.499742 388.048238,932.113867 389.530216,909.8112 C390.476388,895.563867 416.225524,896.307408 414.481915,909.58545" id="ink-layer"></path>
                <path d="M737.476321,973.32865 C739.64284,963.951067 770.658641,980.2194 760.308094,992.064108 C756.835213,996.039817 747.751605,992.44215 744.259012,990.086108 C737.347298,985.4224 737.196771,981.117025 737.476321,973.32865" id="ink-layer"></path>
                <path d="M564.666272,772.594617 C565.875866,768.414658 567.219861,761.022242 571.208835,758.35445 C578.42698,753.5277 584.711496,760.809033 584.713288,768.482742 C584.71508,782.798158 568.416911,787.313158 564.666272,772.594617" id="ink-layer"></path>
                <path d="M487.794466,939.968533 C495.847679,941.81395 513.778353,961.386117 503.379422,969.369783 C493.371146,977.054242 480.060228,945.814742 487.794466,939.968533" id="ink-layer"></path>
                <path d="M495.461146,791.8192 C505.815277,792.645158 520.047279,809.409783 503.953397,812.073992 C491.364652,814.159492 476.724076,795.9257 495.461146,791.8192" id="ink-layer"></path>
                <path d="M589.199541,868.964067 C591.796137,860.218942 617.475385,869.589358 616.032832,879.217775 C615.265859,884.336567 604.766577,885.538775 599.247241,884.186067 C591.122348,882.191942 589.013173,876.863525 589.199541,868.964067" id="ink-layer"></path>
                <path d="M286.501596,380.544983 C286.687964,369.239567 308.415869,364.6314 310.007158,376.024608 C311.446128,386.317733 286.229214,397.270192 286.501596,380.544983" id="ink-layer"></path>
                <path d="M582.020999,985.455725 C583.5872,979.770767 584.262781,972.928392 591.364446,972.179475 C599.496507,971.321267 599.25638,977.556267 598.301248,984.017017 C595.699276,1001.59506 585.764471,1002.47298 582.020999,985.455725" id="ink-layer"></path>
                <path d="M238.89822,515.054 C227.571037,517.608917 206.825144,495.797167 219.50528,491.117333 C228.440153,487.815292 238.89822,508.473208 238.89822,515.054" id="ink-layer"></path>
                <path d="M383.372393,684.480988 C377.607554,687.195363 376.279688,688.841904 371.851675,684.387821 C367.995308,680.508863 368.165548,669.701529 371.475357,665.666696 C384.15191,650.215363 383.854439,678.228071 383.372393,684.480988" id="ink-layer"></path>
                <path d="M430.405199,653.142588 C436.417333,653.907629 454.281703,670.849629 444.979472,677.582713 C433.58061,685.831546 427.13123,659.990338 430.405199,653.142588" id="ink-layer"></path>
                <path d="M560.482149,657.604196 C556.11148,674.429738 545.203624,663.108196 545.821861,650.376613 C546.814625,629.983863 558.118511,647.744654 560.482149,657.604196" id="ink-layer"></path>
                <path d="M626.806826,927.834471 C634.200586,930.892846 644.235742,959.151013 633.675532,960.666763 C621.814336,962.367054 625.763887,933.718304 626.806826,927.834471" id="ink-layer"></path>
                <path d="M534.473712,911.958871 C542.933707,909.104746 546.033854,926.947954 541.116627,930.262538 C530.29837,937.554621 532.579576,916.169288 534.473712,911.958871" id="ink-layer"></path>
                <path d="M454.2645,863.339667 C454.156981,865.70825 454.051253,868.076833 453.94015,870.431083 C454.045877,868.058917 454.153397,865.699292 454.2645,863.339667" id="ink-layer"></path>
                <path d="M737.476321,973.32865 C737.388514,975.75815 737.300706,978.185858 737.209315,980.602817 C737.293538,978.169733 737.38493,975.749192 737.476321,973.32865" id="ink-layer"></path>
                <path d="M589.199541,868.964067 C589.152949,871.024483 589.102773,873.0849 589.049013,875.132775 C589.095605,873.066983 589.149365,871.015525 589.199541,868.964067" id="ink-layer"></path>
                <path d="M1524.97284,833.504296 C1542.51286,832.941713 1562.07963,826.341213 1579.31501,828.441046 C1584.0602,829.019754 1594.98239,830.214796 1587.38076,837.250671 C1583.74481,840.615421 1566.33919,838.875713 1561.07073,839.991921 C1528.86684,846.809213 1492.3102,851.205963 1459.28916,850.638004 C1443.83144,850.372838 1428.25903,849.134796 1412.80847,848.317796 C1397.36866,847.500796 1395.85085,841.228171 1413.22421,839.232254 C1431.26778,837.161088 1449.78264,837.929713 1467.91581,837.908213 C1486.97903,837.883129 1505.94726,834.776379 1524.97284,833.504296" id="ink-layer"></path>
                <path d="M1563.47971,791.254108 C1561.79165,796.059358 1560.30967,807.088858 1553.84058,807.812692 C1544.78027,808.824983 1543.28037,793.271525 1543.61368,787.582983 C1544.01867,780.717317 1546.48983,769.311567 1555.02509,771.6909 C1562.23427,773.697567 1562.95645,785.759067 1563.47971,791.254108" id="ink-layer"></path>
                <path d="M1508.6279,787.735454 C1509.95219,782.589788 1510.60268,770.986954 1517.88175,770.592788 C1526.0174,770.153829 1528.34161,782.242204 1528.28785,788.034663 C1528.23409,793.533288 1526.20018,803.919579 1519.72213,805.189871 C1510.93957,806.911663 1510.15468,793.615704 1508.6279,787.735454" id="ink-layer"></path>
                <path d="M1417.28021,796.965763 C1414.64419,803.150596 1412.90058,811.669971 1404.74343,807.452388 C1398.43562,804.191554 1397.55575,791.038929 1398.74563,785.017138 C1399.97852,778.778554 1402.58945,771.622638 1409.75921,774.428388 C1418.02747,777.665929 1417.1924,790.155638 1417.28021,796.965763" id="ink-layer"></path>
                <path d="M1486.45558,791.254108 C1478.68013,814.8199 1464.4983,798.875858 1469.88324,781.281692 C1475.51368,762.892025 1485.74058,780.75315 1486.45558,791.254108" id="ink-layer"></path>
                <path d="M1448.57179,792.420125 C1446.41244,796.569625 1444.11511,805.520792 1438.29472,804.578375 C1431.15901,803.420958 1430.92963,789.691417 1431.71273,784.578 C1432.39548,780.102417 1434.4061,772.643708 1440.37881,772.740458 C1449.00904,772.880208 1448.43023,787.048708 1448.57179,792.420125" id="ink-layer"></path>
                <path d="M1603.67176,796.943904 C1597.88363,809.928112 1589.92181,798.742737 1592.47002,789.521029 C1596.24933,775.845238 1603.34383,787.962279 1603.67176,796.943904" id="ink-layer"></path>
                <path d="M1461.91712,837.924875 C1455.59676,837.899792 1449.27282,837.8765 1442.95246,837.853208 C1449.2782,836.66175 1455.60393,836.197708 1461.91712,837.924875" id="ink-layer"></path>
                <path d="M1587.53864,828.388192 C1582.05514,828.424025 1576.57344,828.458067 1571.09353,828.4939 C1576.56627,826.852733 1582.04797,826.8169 1587.53864,828.388192" id="ink-layer"></path>
                <path d="M1524.97284,833.504296 C1520.58425,833.798129 1516.19746,834.091962 1511.81066,834.385796 C1516.19925,834.091962 1520.58605,833.798129 1524.97284,833.504296" id="ink-layer"></path>
                <path d="M1417.28021,796.965763 C1417.24078,793.816013 1417.19777,790.666263 1417.16014,787.523679 C1418.7819,790.655513 1418.669,793.801679 1417.28021,796.965763" id="ink-layer"></path>
                <path d="M1451.67624,850.571533 C1454.22087,850.594825 1456.7655,850.616325 1459.28862,850.639617 C1456.73683,850.616325 1454.20653,850.594825 1451.67624,850.571533" id="ink-layer"></path>
                <path d="M1408.94493,848.318871 C1411.52182,848.318871 1414.10049,848.317079 1416.65946,848.318871 C1414.07182,848.318871 1411.50927,848.318871 1408.94493,848.318871" id="ink-layer"></path>
                <path d="M1430.07611,838.19685 C1426.49212,838.490683 1422.90814,838.784517 1419.32594,839.07835 C1422.90993,838.784517 1426.49212,838.490683 1430.07611,838.19685" id="ink-layer"></path>
                <path d="M1478.53157,837.885458 C1474.99239,837.892625 1471.455,837.899792 1467.91581,837.906958 C1471.4532,836.416292 1474.9906,836.373292 1478.53157,837.885458" id="ink-layer"></path>
                <path d="M1448.57179,792.420125 C1448.48399,789.137792 1448.39797,785.855458 1448.31554,782.576708 C1448.40335,785.860833 1448.48757,789.141375 1448.57179,792.420125" id="ink-layer"></path>
                <path d="M1398.74599,785.017317 C1398.72628,788.219025 1398.70657,791.420733 1398.68148,794.6099 C1398.70119,791.404608 1398.72269,788.211858 1398.74599,785.017317" id="ink-layer"></path>
                <path d="M1545.08025,832.312838 C1541.95143,832.595921 1538.82441,832.877212 1535.69917,833.160296 C1538.82799,832.877212 1541.95502,832.595921 1545.08025,832.312838" id="ink-layer"></path>
                <path d="M1603.67176,796.943904 C1603.56962,794.147113 1603.46927,791.350321 1603.36892,788.557113 C1603.47106,791.355696 1603.56962,794.148904 1603.67176,796.943904" id="ink-layer"></path>
                <path d="M1470.5814,850.665058 C1472.75867,850.62385 1474.93594,850.582642 1477.09171,850.545017 C1474.90727,850.588017 1472.74434,850.627433 1470.5814,850.665058" id="ink-layer"></path>
                <path d="M1563.47971,791.254108 C1563.28797,789.243858 1563.09622,787.231817 1562.90627,785.228733 C1563.09801,787.242567 1563.28976,789.247442 1563.47971,791.254108" id="ink-layer"></path>
                <path d="M1486.45558,791.254108 C1486.31581,789.190108 1486.17424,787.124317 1486.03447,785.065692 C1486.17603,787.131483 1486.31581,789.193692 1486.45558,791.254108" id="ink-layer"></path>
                <path d="M363.529126,184.72155 C354.965195,182.4748 353.35957,170.441967 354.73582,163.051342 C356.296646,159.489508 357.857471,155.929467 359.418296,152.367633 C358.807227,151.050758 358.197949,149.733883 357.588672,148.417008 C358.371773,141.081925 356.370117,137.89455 364.801441,140.865133 C380.463452,146.38705 382.966865,184.155383 363.529126,184.72155" id="ink-layer"></path>
                <path d="M490.296983,161.456042 C497.352056,160.900625 510.166592,169.115417 503.143775,177.06325 C498.792818,181.98675 484.455089,179.657583 478.606026,180.686 C470.848492,182.049458 462.757647,183.914583 466.954493,172.297417 C470.249966,163.17425 482.019771,161.21775 490.296983,161.456042" id="ink-layer"></path>
                <path d="M482.873476,216.099367 C475.707299,210.353492 478.906006,184.182617 489.81207,188.891117 C501.031733,193.737575 488.853354,212.322533 482.873476,216.099367" id="ink-layer"></path>
                <path d="M354.735462,163.050983 C354.735462,165.804775 354.73367,168.560358 354.728294,171.301608 C353.233773,168.542442 353.280364,165.795817 354.735462,163.050983" id="ink-layer"></path>
                <path d="M363.529126,184.72155 C364.9896,184.680342 366.451865,184.637342 367.894419,184.599717 C366.426777,184.6463 364.978848,184.683925 363.529126,184.72155" id="ink-layer"></path>
                <path d="M1248.38315,938.415696 C1247.71294,950.319529 1234.92708,941.518863 1235.83383,933.554904 C1237.48067,919.103321 1245.65395,933.384696 1248.38315,938.415696" id="ink-layer"></path>
            </g>
        </g>
    </g>
</svg>